<svg xmlns="http://www.w3.org/2000/svg" xmlns:xlink="http://www.w3.org/1999/xlink" version="1.1" enable-background="new 0 0 1000 1000" xml:space="preserve" width="1000" height="1000" style=""><rect id="backgroundrect" width="100%" height="100%" x="0" y="0" fill="none" stroke="none"/>
<metadata> Svg Vector Icons : http://www.onlinewebfonts.com/icon </metadata>

<g class="currentLayer" style=""><title>Layer 1</title><g id="svg_1" class="selected" fill="#ffffff" fill-opacity="1"><g transform="translate(0,512) scale(0.10000000149011612,-0.10000000149011612) " id="svg_2" fill="#ffffff" fill-opacity="1"><path d="M4664.7,5007.5c-1671.1-118.9-3146.4-1061-3961.8-2528.7c-803.9-1450.4-803.9-3275,0-4721.6c778.9-1404.4,2173.7-2336.8,3760.4-2513.3c259-30.7,815.4-30.7,1074.4,0c1815,203.4,3370.9,1398.6,4038.6,3106.1c322.3,826.9,408.7,1811.1,237.9,2705.2c-343.4,1786.2-1699.9,3267.3-3451.5,3771.9C5825.5,4982.5,5209.6,5047.7,4664.7,5007.5z M6190,2265.8v-460.5h-316.6c-472,0-470,1.9-470-460.4v-307h402.9h402.9v-51.8c0-30.7-17.3-234.1-38.4-456.6c-21.1-220.6-38.4-404.8-38.4-406.7c0-3.8-163.1-5.8-364.5-5.8h-364.5v-1304.6v-1304.6H4847h-556.4v1304.6V117h-249.4h-249.4v460.5V1038h247.5h247.5l9.6,408.7c9.6,445.1,26.9,546.8,130.5,759.7c78.7,159.2,239.8,320.4,401,397.1c107.5,51.8,166.9,69.1,374.1,111.3c21.1,3.8,251.3,7.7,514.2,9.6l473.9,1.9V2265.8z" id="svg_3" fill="#ffffff" fill-opacity="1"/></g></g></g></svg>