<svg xmlns="http://www.w3.org/2000/svg" xmlns:xlink="http://www.w3.org/1999/xlink" version="1.1" enable-background="new 0 0 1000 1000" xml:space="preserve" width="1000" height="1000" style=""><rect id="backgroundrect" width="100%" height="100%" x="0" y="0" fill="none" stroke="none"/>
<metadata> Svg Vector Icons : http://www.onlinewebfonts.com/icon </metadata>

<g class="currentLayer" style=""><title>Layer 1</title><g id="svg_1" class="selected" fill="#000000" fill-opacity="1"><g transform="translate(0,460) scale(0.10000000149011612,-0.10000000149011612) " id="svg_2" fill="#000000" fill-opacity="1"><path d="M4497.725,4475.4 c-1733.7,-173.6 -3295.9,-1326.5 -3983.8,-2938 C-289.675,-346.3 145.325,-2508.5 1615.425,-3929.3 c754.3,-728.6 1647.9,-1163.6 2732.3,-1332.9 c319.3,-49.3 1022.2,-49.3 1350.1,0 c1080.1,162.9 2031.5,640.7 2785.8,1395.1 c385.7,383.6 681.5,795 927.9,1287.9 c227.2,456.4 385.7,964.3 467.2,1497.9 c49.3,327.9 49.3,1030.8 0,1350.1 c-107.1,687.9 -312.9,1279.3 -632.2,1815.1 c-904.3,1517.2 -2518,2432.3 -4264.5,2415.1 C4821.225,4496.8 4604.825,4486.1 4497.725,4475.4 zM3698.325,2165.3 c55.7,-205.7 107.1,-398.6 113.6,-428.6 c19.3,-77.1 32.1,-42.9 150,413.6 l102.9,400.7 h188.6 c105,0 190.7,-2.1 190.7,-6.4 c0,-2.1 -96.4,-293.6 -214.3,-647.2 l-214.3,-642.9 V810.9 V365.2 h-182.2 h-182.1 v435 v432.9 L3436.925,1876 c-117.9,353.6 -214.3,649.3 -214.3,660 c0,8.6 83.6,12.9 186.4,10.7 l186.4,-6.4 L3698.325,2165.3 zM5162.025,1974.6 c105,-47.1 195,-147.9 225,-255 c17.1,-51.4 21.4,-257.2 17.1,-582.9 l-6.4,-503.6 l-57.9,-100.7 c-81.4,-137.1 -210,-199.3 -413.6,-197.1 c-222.9,2.1 -355.7,79.3 -428.6,250.7 c-49.3,117.9 -47.1,1101.5 2.1,1208.6 c40.7,81.4 145.7,171.4 237.9,199.3 C4846.925,2026 5069.825,2017.4 5162.025,1974.6 zM5987.025,1331.7 c0,-533.6 4.3,-645 32.1,-666.5 c36.4,-30 94.3,-15 169.3,45 l55.7,42.9 v610.7 v608.6 H6415.625 h171.4 v-803.6 V365.2 H6415.625 h-171.4 V438 v75 l-107.1,-72.9 c-182.2,-122.2 -347.2,-124.3 -437.2,-4.3 c-42.9,57.9 -45,87.9 -51.4,799.3 l-6.4,737.2 h171.4 h173.6 V1331.7 zM6432.725,-286.3 c600,-62.1 784.3,-120 861.5,-270 c107.1,-210 169.3,-694.3 169.3,-1317.9 c0,-649.3 -64.3,-1135.8 -180,-1332.9 c-62.2,-102.9 -173.6,-154.3 -428.6,-197.1 c-737.2,-126.4 -2545.8,-143.6 -3448,-32.1 c-372.9,45 -525,87.9 -604.3,169.3 c-152.1,150 -231.4,621.5 -231.4,1392.9 c0,735 75,1215.1 214.3,1380.1 C2892.625,-365.6 3201.225,-312 4165.525,-247.7 C4484.825,-226.3 6124.125,-256.3 6432.725,-286.3 z" id="svg_3" fill="#000000" fill-opacity="1"/><path d="M4842.725,1702.4 c-30,-27.9 -34.3,-107.1 -34.3,-531.4 c0,-357.9 6.4,-503.6 25.7,-522.9 c38.6,-38.6 156.4,-30 195,12.9 c32.1,34.3 36.4,102.9 36.4,525 c0,475.7 0,484.3 -47.2,516.5 C4956.225,1745.2 4885.525,1745.2 4842.725,1702.4 z" id="svg_4" fill="#000000" fill-opacity="1"/><path d="M3051.225,-1017 v-139.3 h160.7 H3372.625 v-835.8 v-835.8 h160.7 h160.7 v835.8 v835.8 h160.7 h160.7 v139.3 v139.3 h-482.2 h-482.2 V-1017 z" id="svg_5" fill="#000000" fill-opacity="1"/><path d="M5194.125,-1852.8 v-975 h139.3 c137.1,0 139.3,0 139.3,60 c0,32.1 8.6,47.1 17.1,34.3 c32.1,-51.4 169.3,-115.7 244.3,-115.7 c107.1,0 173.6,34.3 222.9,113.6 c36.4,62.2 40.7,113.6 40.7,604.3 c0,475.7 -4.3,544.3 -38.6,615 c-77.2,152.1 -263.6,184.3 -413.6,70.7 l-72.8,-55.7 v310.7 v312.9 h-139.3 h-139.3 V-1852.8 zM5667.725,-1625.6 c51.4,-40.7 51.4,-45 51.4,-490.8 c0,-477.9 -8.6,-518.6 -105,-518.6 c-25.7,0 -68.6,15 -94.3,34.3 c-47.1,32.1 -47.1,40.7 -47.1,490.7 s0,458.6 47.1,490.8 C5582.025,-1574.2 5607.725,-1576.3 5667.725,-1625.6 z" id="svg_6" fill="#000000" fill-opacity="1"/><path d="M6452.025,-1374.9 c-111.4,-30 -240,-156.4 -270,-263.6 c-30,-111.4 -30,-831.5 0,-942.9 c51.4,-182.1 190.7,-287.1 383.6,-289.3 c270,0 428.6,158.6 428.6,435 v79.3 h-139.3 c-132.9,0 -139.3,-2.1 -139.3,-51.4 c0,-169.3 -64.3,-248.6 -180,-218.6 c-68.6,17.1 -98.6,115.7 -98.6,330 v154.3 H6715.625 h278.6 v231.4 c-2.1,310.7 -49.3,432.9 -195,507.9 C6719.925,-1362 6548.525,-1347 6452.025,-1374.9 zM6674.925,-1640.6 c15,-19.3 32.1,-90 36.4,-160.7 l8.6,-126.4 h-143.6 h-143.6 l8.6,126.4 c10.7,150 40.7,195 135,195 C6614.925,-1606.3 6657.725,-1621.3 6674.925,-1640.6 z" id="svg_7" fill="#000000" fill-opacity="1"/><path d="M4169.825,-2079.9 l6.4,-687.9 l51.4,-40.7 c92.2,-75 242.2,-49.3 370.7,64.3 c83.6,72.9 102.9,68.6 102.9,-23.6 c0,-60 2.1,-60 128.6,-60 h128.6 v717.9 v717.9 h-128.6 h-128.6 v-542.2 v-542.2 l-57.9,-55.7 c-72.9,-66.4 -135,-87.9 -177.9,-60 c-27.9,17.1 -32.1,113.6 -38.6,610.7 l-6.4,589.3 h-128.6 h-128.6 L4169.825,-2079.9 z" id="svg_8" fill="#000000" fill-opacity="1"/></g></g></g></svg>